<?xml version="1.0" standalone="no"?>
<!DOCTYPE svg PUBLIC "-//W3C//DTD SVG 20010904//EN"
 "http://www.w3.org/TR/2001/REC-SVG-20010904/DTD/svg10.dtd">
<svg version="1.0" xmlns="http://www.w3.org/2000/svg"
 width="779.000000pt" height="779.000000pt" viewBox="0 0 779.000000 779.000000"
 preserveAspectRatio="xMidYMid meet">
<metadata>
Created by potrace 1.14, written by Peter Selinger 2001-2017
</metadata>
<g transform="translate(0.000000,779.000000) scale(0.100000,-0.100000)"
fill="#000000" stroke="none">
<path d="M3649 7695 c-2 -1 -44 -6 -92 -10 -48 -3 -96 -8 -105 -9 -9 -2 -44
-7 -77 -10 -72 -9 -115 -15 -135 -21 -8 -2 -37 -7 -65 -11 -27 -3 -53 -8 -56
-10 -3 -2 -21 -6 -40 -9 -143 -24 -537 -144 -671 -204 -35 -15 -67 -29 -73
-30 -20 -5 -315 -147 -355 -171 -73 -45 -151 -90 -155 -90 -3 0 -48 -29 -101
-65 -53 -36 -100 -65 -103 -65 -4 0 -13 -9 -21 -20 -8 -11 -18 -20 -23 -20
-14 0 -217 -162 -217 -173 0 -6 -3 -8 -6 -4 -3 3 -24 -11 -46 -31 -22 -20 -55
-50 -72 -65 -128 -117 -301 -299 -384 -406 -15 -19 -40 -50 -57 -71 -16 -20
-39 -49 -50 -65 -11 -15 -34 -46 -50 -69 -72 -98 -215 -328 -215 -345 0 -5 -3
-11 -8 -13 -24 -11 -262 -533 -242 -533 2 0 -6 -18 -17 -40 -12 -22 -21 -43
-22 -48 0 -6 -24 -87 -38 -132 -5 -17 -54 -199 -58 -215 -22 -99 -40 -196 -49
-265 -5 -34 -14 -96 -21 -140 -27 -176 -27 -684 0 -870 3 -16 7 -46 9 -65 9
-70 29 -185 46 -260 5 -25 12 -56 14 -70 15 -80 43 -180 101 -355 37 -114 59
-171 131 -335 35 -81 146 -298 179 -350 14 -22 25 -44 25 -50 0 -5 3 -10 8
-10 7 0 13 -10 42 -66 8 -16 19 -32 25 -36 5 -4 10 -11 10 -15 0 -4 9 -21 20
-36 33 -46 74 -101 85 -114 5 -7 10 -17 10 -23 0 -5 5 -10 10 -10 6 0 10 -7
10 -16 0 -8 5 -12 10 -9 6 3 10 -1 10 -9 0 -9 4 -16 8 -16 4 0 15 -12 24 -27
9 -16 31 -44 48 -63 17 -19 46 -52 63 -74 103 -126 343 -360 477 -466 18 -14
37 -30 44 -35 15 -13 151 -114 196 -145 19 -14 40 -28 45 -32 18 -15 79 -53
170 -108 50 -29 101 -60 115 -69 14 -8 28 -16 32 -16 3 0 9 -3 13 -7 10 -10
194 -99 201 -97 4 0 10 -3 13 -8 3 -5 42 -24 86 -42 44 -18 91 -38 105 -44 14
-6 27 -11 30 -12 15 -5 48 -18 65 -26 27 -12 295 -99 320 -103 11 -3 48 -12
82 -21 71 -18 65 -17 193 -44 52 -11 111 -23 130 -26 80 -12 251 -34 330 -42
107 -10 570 -10 670 1 145 14 245 26 275 32 11 2 60 11 110 20 49 8 92 17 95
19 3 2 21 6 40 9 63 10 98 19 240 61 30 9 63 18 72 20 65 15 304 104 448 167
55 24 260 127 315 158 22 13 60 34 85 48 72 40 213 132 238 155 12 11 22 17
22 14 0 -4 8 0 18 8 9 8 61 48 116 90 108 82 178 142 264 222 31 29 57 53 58
53 8 0 227 235 280 300 16 19 33 40 39 46 5 6 21 26 35 44 14 18 35 44 47 59
13 14 23 29 23 34 0 4 8 16 18 26 25 28 34 40 69 96 18 28 36 55 40 60 19 24
47 70 44 74 -1 2 1 7 6 10 9 6 40 57 96 156 101 180 235 494 292 680 15 50 32
106 38 125 6 19 12 37 12 40 5 24 29 127 32 135 4 16 24 108 27 130 2 11 8 47
15 80 6 33 13 80 16 105 2 25 6 54 9 66 27 127 28 767 1 874 -2 8 -6 40 -10
71 -3 31 -8 67 -11 80 -2 13 -7 40 -10 59 -31 206 -121 519 -219 760 -50 126
-185 403 -197 408 -4 2 -8 9 -8 15 0 7 -18 40 -40 75 -22 34 -40 67 -40 72 0
6 -4 10 -8 10 -5 0 -19 20 -32 45 -13 25 -29 50 -37 56 -7 6 -13 17 -13 24 0
8 -4 15 -9 17 -5 2 -27 28 -48 59 -96 142 -234 302 -439 513 -6 6 -48 45 -94
86 -46 41 -89 81 -96 88 -7 6 -15 12 -18 12 -3 0 -14 8 -24 18 -10 9 -32 28
-50 42 -18 14 -45 35 -60 48 -15 12 -52 39 -82 60 -30 20 -57 40 -60 43 -9 10
-160 109 -167 109 -3 0 -21 11 -39 25 -18 14 -35 25 -37 25 -2 0 -47 24 -98
53 -133 75 -410 207 -436 207 -4 0 -19 6 -33 13 -14 7 -54 23 -90 36 -36 12
-74 26 -85 31 -11 4 -58 19 -105 33 -47 13 -111 32 -143 41 -32 10 -66 19 -75
21 -9 2 -37 8 -62 14 -25 5 -61 13 -80 16 -19 3 -51 10 -70 15 -19 4 -53 11
-75 14 -22 2 -69 9 -105 15 -36 5 -92 13 -125 16 -33 4 -76 9 -95 12 -39 6
-586 14 -591 8z"/>
</g>
</svg>
